%TF.GenerationSoftware,KiCad,Pcbnew,(5.99.0-13244-g73f40b11ee)*%
%TF.CreationDate,2021-12-16T18:40:11-08:00*%
%TF.ProjectId,MiniMike_RP2040,4d696e69-4d69-46b6-955f-525032303430,rev?*%
%TF.SameCoordinates,Original*%
%TF.FileFunction,Legend,Bot*%
%TF.FilePolarity,Positive*%
%FSLAX46Y46*%
G04 Gerber Fmt 4.6, Leading zero omitted, Abs format (unit mm)*
G04 Created by KiCad (PCBNEW (5.99.0-13244-g73f40b11ee)) date 2021-12-16 18:40:11*
%MOMM*%
%LPD*%
G01*
G04 APERTURE LIST*
%ADD10C,0.200000*%
%ADD11C,0.010000*%
%ADD12C,0.125000*%
%ADD13C,0.150000*%
%ADD14C,0.250000*%
%ADD15C,0.187500*%
%ADD16C,0.120000*%
G04 APERTURE END LIST*
D10*
X127999998Y-98100000D02*
X127499999Y-98599999D01*
X127499999Y-98599999D02*
X127000001Y-98100000D01*
X127000001Y-98100000D02*
X127999998Y-98100000D01*
G36*
X127499999Y-98599999D02*
G01*
X127000001Y-98100000D01*
X127999998Y-98100000D01*
X127499999Y-98599999D01*
G37*
X127499999Y-98599999D02*
X127000001Y-98100000D01*
X127999998Y-98100000D01*
X127499999Y-98599999D01*
X128500000Y-119500000D02*
X129000000Y-120000000D01*
X129000000Y-120000000D02*
X128500000Y-120500000D01*
X128500000Y-120500000D02*
X128500000Y-119500000D01*
G36*
X129000000Y-120000000D02*
G01*
X128500000Y-120500000D01*
X128500000Y-119500000D01*
X129000000Y-120000000D01*
G37*
X129000000Y-120000000D02*
X128500000Y-120500000D01*
X128500000Y-119500000D01*
X129000000Y-120000000D01*
D11*
X147300000Y-97500000D02*
X148700000Y-97500000D01*
X148700000Y-97500000D02*
X148700000Y-100100000D01*
X148700000Y-100100000D02*
X147300000Y-100100000D01*
X147300000Y-100100000D02*
X147300000Y-97500000D01*
G36*
X147300000Y-97500000D02*
G01*
X148700000Y-97500000D01*
X148700000Y-100100000D01*
X147300000Y-100100000D01*
X147300000Y-97500000D01*
G37*
D10*
X149500000Y-119400000D02*
X150000000Y-118900000D01*
X150000000Y-118900000D02*
X150500000Y-119400000D01*
X150500000Y-119400000D02*
X149500000Y-119400000D01*
G36*
X150500000Y-119400000D02*
G01*
X149500000Y-119400000D01*
X150000000Y-118900000D01*
X150500000Y-119400000D01*
G37*
X150500000Y-119400000D02*
X149500000Y-119400000D01*
X150000000Y-118900000D01*
X150500000Y-119400000D01*
D12*
X149607550Y-97027728D02*
X149077220Y-97558058D01*
X149161399Y-97642237D01*
X149237161Y-97667491D01*
X149321340Y-97650655D01*
X149388684Y-97616983D01*
X149506535Y-97532804D01*
X149582296Y-97457043D01*
X149666476Y-97339191D01*
X149700147Y-97271848D01*
X149716983Y-97187668D01*
X149691730Y-97111907D01*
X149607550Y-97027728D01*
X150070537Y-97541222D02*
X150062119Y-97482296D01*
X149994775Y-97414953D01*
X149935850Y-97406535D01*
X149868506Y-97440207D01*
X149666476Y-97642237D01*
X149632804Y-97709581D01*
X149641222Y-97768506D01*
X149708565Y-97835850D01*
X149767491Y-97844268D01*
X149834834Y-97810596D01*
X149885342Y-97760088D01*
X149767491Y-97541222D01*
X150390418Y-97861104D02*
X150382000Y-97802178D01*
X150314657Y-97734834D01*
X150255731Y-97726417D01*
X150213642Y-97734834D01*
X150146298Y-97768506D01*
X149994775Y-97920029D01*
X149961104Y-97987373D01*
X149952686Y-98029462D01*
X149961104Y-98088388D01*
X150028447Y-98155731D01*
X150087373Y-98164149D01*
X150070537Y-98450359D02*
X150062119Y-98492449D01*
X150070537Y-98551374D01*
X150154716Y-98635554D01*
X150213642Y-98643972D01*
X150255731Y-98635554D01*
X150323075Y-98601882D01*
X150373582Y-98551374D01*
X150432508Y-98458777D01*
X150533523Y-97953701D01*
X150752390Y-98172567D01*
X151089107Y-98509285D02*
X150887077Y-98307254D01*
X150988092Y-98408269D02*
X150457762Y-98938600D01*
X150499852Y-98829166D01*
X150516687Y-98744987D01*
X150508269Y-98686061D01*
D13*
X145928571Y-99048000D02*
X145928571Y-99298000D01*
X146452380Y-99405142D02*
X146452380Y-99048000D01*
X145452380Y-99048000D01*
X145452380Y-99405142D01*
X145785714Y-99726571D02*
X146452380Y-99726571D01*
X145880952Y-99726571D02*
X145833333Y-99762285D01*
X145785714Y-99833714D01*
X145785714Y-99940857D01*
X145833333Y-100012285D01*
X145928571Y-100048000D01*
X146452380Y-100048000D01*
D12*
X136556761Y-98940476D02*
X136604380Y-99011904D01*
X136604380Y-99130952D01*
X136556761Y-99178571D01*
X136509142Y-99202380D01*
X136413904Y-99226190D01*
X136318666Y-99226190D01*
X136223428Y-99202380D01*
X136175809Y-99178571D01*
X136128190Y-99130952D01*
X136080571Y-99035714D01*
X136032952Y-98988095D01*
X135985333Y-98964285D01*
X135890095Y-98940476D01*
X135794857Y-98940476D01*
X135699619Y-98964285D01*
X135652000Y-98988095D01*
X135604380Y-99035714D01*
X135604380Y-99154761D01*
X135652000Y-99226190D01*
X135604380Y-99392857D02*
X136604380Y-99511904D01*
X135890095Y-99607142D01*
X136604380Y-99702380D01*
X135604380Y-99821428D01*
X136604380Y-100011904D02*
X135604380Y-100011904D01*
X135604380Y-100130952D01*
X135652000Y-100202380D01*
X135747238Y-100250000D01*
X135842476Y-100273809D01*
X136032952Y-100297619D01*
X136175809Y-100297619D01*
X136366285Y-100273809D01*
X136461523Y-100250000D01*
X136556761Y-100202380D01*
X136604380Y-100130952D01*
X136604380Y-100011904D01*
X136604380Y-100511904D02*
X135604380Y-100511904D01*
X135604380Y-100845238D02*
X135604380Y-100940476D01*
X135652000Y-100988095D01*
X135747238Y-101035714D01*
X135937714Y-101059523D01*
X136271047Y-101059523D01*
X136461523Y-101035714D01*
X136556761Y-100988095D01*
X136604380Y-100940476D01*
X136604380Y-100845238D01*
X136556761Y-100797619D01*
X136461523Y-100750000D01*
X136271047Y-100726190D01*
X135937714Y-100726190D01*
X135747238Y-100750000D01*
X135652000Y-100797619D01*
X135604380Y-100845238D01*
D13*
X131512000Y-98784142D02*
X131512000Y-99534142D01*
X132794380Y-99391285D02*
X132318190Y-99141285D01*
X132794380Y-98962714D02*
X131794380Y-98962714D01*
X131794380Y-99248428D01*
X131842000Y-99319857D01*
X131889619Y-99355571D01*
X131984857Y-99391285D01*
X132127714Y-99391285D01*
X132222952Y-99355571D01*
X132270571Y-99319857D01*
X132318190Y-99248428D01*
X132318190Y-98962714D01*
X131512000Y-99534142D02*
X131512000Y-100248428D01*
X132746761Y-99677000D02*
X132794380Y-99784142D01*
X132794380Y-99962714D01*
X132746761Y-100034142D01*
X132699142Y-100069857D01*
X132603904Y-100105571D01*
X132508666Y-100105571D01*
X132413428Y-100069857D01*
X132365809Y-100034142D01*
X132318190Y-99962714D01*
X132270571Y-99819857D01*
X132222952Y-99748428D01*
X132175333Y-99712714D01*
X132080095Y-99677000D01*
X131984857Y-99677000D01*
X131889619Y-99712714D01*
X131842000Y-99748428D01*
X131794380Y-99819857D01*
X131794380Y-99998428D01*
X131842000Y-100105571D01*
X131512000Y-100248428D02*
X131512000Y-100819857D01*
X131794380Y-100319857D02*
X131794380Y-100748428D01*
X132794380Y-100534142D02*
X131794380Y-100534142D01*
X141446380Y-98909142D02*
X141446380Y-99373428D01*
X141827333Y-99123428D01*
X141827333Y-99230571D01*
X141874952Y-99302000D01*
X141922571Y-99337714D01*
X142017809Y-99373428D01*
X142255904Y-99373428D01*
X142351142Y-99337714D01*
X142398761Y-99302000D01*
X142446380Y-99230571D01*
X142446380Y-99016285D01*
X142398761Y-98944857D01*
X142351142Y-98909142D01*
X141779714Y-99623428D02*
X142446380Y-99802000D01*
X141779714Y-99980571D01*
X141446380Y-100194857D02*
X141446380Y-100659142D01*
X141827333Y-100409142D01*
X141827333Y-100516285D01*
X141874952Y-100587714D01*
X141922571Y-100623428D01*
X142017809Y-100659142D01*
X142255904Y-100659142D01*
X142351142Y-100623428D01*
X142398761Y-100587714D01*
X142446380Y-100516285D01*
X142446380Y-100302000D01*
X142398761Y-100230571D01*
X142351142Y-100194857D01*
D14*
X149547619Y-119738095D02*
X149500000Y-119785714D01*
X149452380Y-119880952D01*
X149452380Y-120119047D01*
X149500000Y-120214285D01*
X149547619Y-120261904D01*
X149642857Y-120309523D01*
X149738095Y-120309523D01*
X149880952Y-120261904D01*
X150452380Y-119690476D01*
X150452380Y-120309523D01*
X149452380Y-120928571D02*
X149452380Y-121023809D01*
X149500000Y-121119047D01*
X149547619Y-121166666D01*
X149642857Y-121214285D01*
X149833333Y-121261904D01*
X150071428Y-121261904D01*
X150261904Y-121214285D01*
X150357142Y-121166666D01*
X150404761Y-121119047D01*
X150452380Y-121023809D01*
X150452380Y-120928571D01*
X150404761Y-120833333D01*
X150357142Y-120785714D01*
X150261904Y-120738095D01*
X150071428Y-120690476D01*
X149833333Y-120690476D01*
X149642857Y-120738095D01*
X149547619Y-120785714D01*
X149500000Y-120833333D01*
X149452380Y-120928571D01*
D12*
X129984571Y-98964761D02*
X130032190Y-99036190D01*
X130079809Y-99060000D01*
X130175047Y-99083809D01*
X130317904Y-99083809D01*
X130413142Y-99060000D01*
X130460761Y-99036190D01*
X130508380Y-98988571D01*
X130508380Y-98798095D01*
X129508380Y-98798095D01*
X129508380Y-98964761D01*
X129556000Y-99012380D01*
X129603619Y-99036190D01*
X129698857Y-99060000D01*
X129794095Y-99060000D01*
X129889333Y-99036190D01*
X129936952Y-99012380D01*
X129984571Y-98964761D01*
X129984571Y-98798095D01*
X129508380Y-99393333D02*
X129508380Y-99488571D01*
X129556000Y-99536190D01*
X129651238Y-99583809D01*
X129841714Y-99607619D01*
X130175047Y-99607619D01*
X130365523Y-99583809D01*
X130460761Y-99536190D01*
X130508380Y-99488571D01*
X130508380Y-99393333D01*
X130460761Y-99345714D01*
X130365523Y-99298095D01*
X130175047Y-99274285D01*
X129841714Y-99274285D01*
X129651238Y-99298095D01*
X129556000Y-99345714D01*
X129508380Y-99393333D01*
X129508380Y-99917142D02*
X129508380Y-100012380D01*
X129556000Y-100060000D01*
X129651238Y-100107619D01*
X129841714Y-100131428D01*
X130175047Y-100131428D01*
X130365523Y-100107619D01*
X130460761Y-100060000D01*
X130508380Y-100012380D01*
X130508380Y-99917142D01*
X130460761Y-99869523D01*
X130365523Y-99821904D01*
X130175047Y-99798095D01*
X129841714Y-99798095D01*
X129651238Y-99821904D01*
X129556000Y-99869523D01*
X129508380Y-99917142D01*
X129508380Y-100274285D02*
X129508380Y-100560000D01*
X130508380Y-100417142D02*
X129508380Y-100417142D01*
X130460761Y-100702857D02*
X130508380Y-100774285D01*
X130508380Y-100893333D01*
X130460761Y-100940952D01*
X130413142Y-100964761D01*
X130317904Y-100988571D01*
X130222666Y-100988571D01*
X130127428Y-100964761D01*
X130079809Y-100940952D01*
X130032190Y-100893333D01*
X129984571Y-100798095D01*
X129936952Y-100750476D01*
X129889333Y-100726666D01*
X129794095Y-100702857D01*
X129698857Y-100702857D01*
X129603619Y-100726666D01*
X129556000Y-100750476D01*
X129508380Y-100798095D01*
X129508380Y-100917142D01*
X129556000Y-100988571D01*
X129984571Y-101202857D02*
X129984571Y-101369523D01*
X130508380Y-101440952D02*
X130508380Y-101202857D01*
X129508380Y-101202857D01*
X129508380Y-101440952D01*
X130508380Y-101893333D02*
X130508380Y-101655238D01*
X129508380Y-101655238D01*
X134524761Y-98869047D02*
X134572380Y-98940476D01*
X134572380Y-99059523D01*
X134524761Y-99107142D01*
X134477142Y-99130952D01*
X134381904Y-99154761D01*
X134286666Y-99154761D01*
X134191428Y-99130952D01*
X134143809Y-99107142D01*
X134096190Y-99059523D01*
X134048571Y-98964285D01*
X134000952Y-98916666D01*
X133953333Y-98892857D01*
X133858095Y-98869047D01*
X133762857Y-98869047D01*
X133667619Y-98892857D01*
X133620000Y-98916666D01*
X133572380Y-98964285D01*
X133572380Y-99083333D01*
X133620000Y-99154761D01*
X133572380Y-99321428D02*
X134572380Y-99440476D01*
X133858095Y-99535714D01*
X134572380Y-99630952D01*
X133572380Y-99750000D01*
X134477142Y-100226190D02*
X134524761Y-100202380D01*
X134572380Y-100130952D01*
X134572380Y-100083333D01*
X134524761Y-100011904D01*
X134429523Y-99964285D01*
X134334285Y-99940476D01*
X134143809Y-99916666D01*
X134000952Y-99916666D01*
X133810476Y-99940476D01*
X133715238Y-99964285D01*
X133620000Y-100011904D01*
X133572380Y-100083333D01*
X133572380Y-100130952D01*
X133620000Y-100202380D01*
X133667619Y-100226190D01*
X134572380Y-100678571D02*
X134572380Y-100440476D01*
X133572380Y-100440476D01*
X134572380Y-100845238D02*
X133572380Y-100845238D01*
X134572380Y-101130952D02*
X134000952Y-100916666D01*
X133572380Y-101130952D02*
X134143809Y-100845238D01*
D13*
X140414380Y-98887285D02*
X139414380Y-98887285D01*
X139414380Y-99065857D01*
X139462000Y-99173000D01*
X139557238Y-99244428D01*
X139652476Y-99280142D01*
X139842952Y-99315857D01*
X139985809Y-99315857D01*
X140176285Y-99280142D01*
X140271523Y-99244428D01*
X140366761Y-99173000D01*
X140414380Y-99065857D01*
X140414380Y-98887285D01*
X140033428Y-99637285D02*
X140033428Y-100208714D01*
D15*
X127952380Y-119909523D02*
X127952380Y-119338095D01*
X127952380Y-119623809D02*
X126952380Y-119623809D01*
X127095238Y-119528571D01*
X127190476Y-119433333D01*
X127238095Y-119338095D01*
X126952380Y-120528571D02*
X126952380Y-120623809D01*
X127000000Y-120719047D01*
X127047619Y-120766666D01*
X127142857Y-120814285D01*
X127333333Y-120861904D01*
X127571428Y-120861904D01*
X127761904Y-120814285D01*
X127857142Y-120766666D01*
X127904761Y-120719047D01*
X127952380Y-120623809D01*
X127952380Y-120528571D01*
X127904761Y-120433333D01*
X127857142Y-120385714D01*
X127761904Y-120338095D01*
X127571428Y-120290476D01*
X127333333Y-120290476D01*
X127142857Y-120338095D01*
X127047619Y-120385714D01*
X127000000Y-120433333D01*
X126952380Y-120528571D01*
D13*
X138382380Y-98887285D02*
X137382380Y-98887285D01*
X137382380Y-99065857D01*
X137430000Y-99173000D01*
X137525238Y-99244428D01*
X137620476Y-99280142D01*
X137810952Y-99315857D01*
X137953809Y-99315857D01*
X138144285Y-99280142D01*
X138239523Y-99244428D01*
X138334761Y-99173000D01*
X138382380Y-99065857D01*
X138382380Y-98887285D01*
X138001428Y-99637285D02*
X138001428Y-100208714D01*
X138382380Y-99923000D02*
X137620476Y-99923000D01*
D14*
X146685714Y-104004761D02*
X147352380Y-104004761D01*
X146780952Y-104004761D02*
X146733333Y-104052380D01*
X146685714Y-104147619D01*
X146685714Y-104290476D01*
X146733333Y-104385714D01*
X146828571Y-104433333D01*
X147352380Y-104433333D01*
X147304761Y-105290476D02*
X147352380Y-105195238D01*
X147352380Y-105004761D01*
X147304761Y-104909523D01*
X147209523Y-104861904D01*
X146828571Y-104861904D01*
X146733333Y-104909523D01*
X146685714Y-105004761D01*
X146685714Y-105195238D01*
X146733333Y-105290476D01*
X146828571Y-105338095D01*
X146923809Y-105338095D01*
X147019047Y-104861904D01*
X147352380Y-105909523D02*
X147304761Y-105814285D01*
X147257142Y-105766666D01*
X147161904Y-105719047D01*
X146876190Y-105719047D01*
X146780952Y-105766666D01*
X146733333Y-105814285D01*
X146685714Y-105909523D01*
X146685714Y-106052380D01*
X146733333Y-106147619D01*
X146780952Y-106195238D01*
X146876190Y-106242857D01*
X147161904Y-106242857D01*
X147257142Y-106195238D01*
X147304761Y-106147619D01*
X147352380Y-106052380D01*
X147352380Y-105909523D01*
X126952380Y-97252380D02*
X126952380Y-97347619D01*
X127000000Y-97442857D01*
X127047619Y-97490476D01*
X127142857Y-97538095D01*
X127333333Y-97585714D01*
X127571428Y-97585714D01*
X127761904Y-97538095D01*
X127857142Y-97490476D01*
X127904761Y-97442857D01*
X127952380Y-97347619D01*
X127952380Y-97252380D01*
X127904761Y-97157142D01*
X127857142Y-97109523D01*
X127761904Y-97061904D01*
X127571428Y-97014285D01*
X127333333Y-97014285D01*
X127142857Y-97061904D01*
X127047619Y-97109523D01*
X127000000Y-97157142D01*
X126952380Y-97252380D01*
D13*
X143478380Y-99405142D02*
X143478380Y-99048000D01*
X143954571Y-99012285D01*
X143906952Y-99048000D01*
X143859333Y-99119428D01*
X143859333Y-99298000D01*
X143906952Y-99369428D01*
X143954571Y-99405142D01*
X144049809Y-99440857D01*
X144287904Y-99440857D01*
X144383142Y-99405142D01*
X144430761Y-99369428D01*
X144478380Y-99298000D01*
X144478380Y-99119428D01*
X144430761Y-99048000D01*
X144383142Y-99012285D01*
X143478380Y-99655142D02*
X144478380Y-99905142D01*
X143478380Y-100155142D01*
D14*
X144452380Y-104338095D02*
X144404761Y-104242857D01*
X144309523Y-104195238D01*
X143452380Y-104195238D01*
X144404761Y-105100000D02*
X144452380Y-105004761D01*
X144452380Y-104814285D01*
X144404761Y-104719047D01*
X144309523Y-104671428D01*
X143928571Y-104671428D01*
X143833333Y-104719047D01*
X143785714Y-104814285D01*
X143785714Y-105004761D01*
X143833333Y-105100000D01*
X143928571Y-105147619D01*
X144023809Y-105147619D01*
X144119047Y-104671428D01*
X144452380Y-106004761D02*
X143452380Y-106004761D01*
X144404761Y-106004761D02*
X144452380Y-105909523D01*
X144452380Y-105719047D01*
X144404761Y-105623809D01*
X144357142Y-105576190D01*
X144261904Y-105528571D01*
X143976190Y-105528571D01*
X143880952Y-105576190D01*
X143833333Y-105623809D01*
X143785714Y-105719047D01*
X143785714Y-105909523D01*
X143833333Y-106004761D01*
D13*
%TO.C,JP1*%
X132052380Y-103232142D02*
X132052380Y-102875000D01*
X131052380Y-102875000D01*
X144552380Y-113303571D02*
X143552380Y-113303571D01*
X143552380Y-113482142D01*
X143600000Y-113589285D01*
X143695238Y-113660714D01*
X143790476Y-113696428D01*
X143980952Y-113732142D01*
X144123809Y-113732142D01*
X144314285Y-113696428D01*
X144409523Y-113660714D01*
X144504761Y-113589285D01*
X144552380Y-113482142D01*
X144552380Y-113303571D01*
X144552380Y-116603571D02*
X143552380Y-116603571D01*
X143552380Y-116889285D01*
X143600000Y-116960714D01*
X143647619Y-116996428D01*
X143742857Y-117032142D01*
X143885714Y-117032142D01*
X143980952Y-116996428D01*
X144028571Y-116960714D01*
X144076190Y-116889285D01*
X144076190Y-116603571D01*
D16*
%TO.C,JP3*%
X133800000Y-101600000D02*
X133200000Y-101600000D01*
X134500000Y-103700000D02*
X134500000Y-102300000D01*
X132500000Y-102300000D02*
X132500000Y-103700000D01*
X133200000Y-104400000D02*
X133800000Y-104400000D01*
X132500000Y-103700000D02*
G75*
G03*
X133200000Y-104400000I699999J-1D01*
G01*
X134500000Y-102300000D02*
G75*
G03*
X133800000Y-101600000I-699999J1D01*
G01*
X133200000Y-101600000D02*
G75*
G03*
X132500000Y-102300000I-1J-699999D01*
G01*
X133800000Y-104400000D02*
G75*
G03*
X134500000Y-103700000I1J699999D01*
G01*
%TO.C,ART1*%
G36*
X134279040Y-107964400D02*
G01*
X134560787Y-107964456D01*
X134815028Y-107964567D01*
X135043212Y-107964751D01*
X135246789Y-107965023D01*
X135427209Y-107965401D01*
X135585921Y-107965900D01*
X135724374Y-107966537D01*
X135844018Y-107967328D01*
X135946301Y-107968290D01*
X136032675Y-107969439D01*
X136104587Y-107970791D01*
X136163487Y-107972364D01*
X136210825Y-107974172D01*
X136248050Y-107976234D01*
X136276612Y-107978564D01*
X136297959Y-107981180D01*
X136313542Y-107984098D01*
X136324809Y-107987335D01*
X136333210Y-107990906D01*
X136338632Y-107993799D01*
X136383443Y-108027355D01*
X136420352Y-108068899D01*
X136429941Y-108084555D01*
X136449123Y-108136468D01*
X136454753Y-108203500D01*
X136453322Y-108249154D01*
X136445335Y-108283166D01*
X136425506Y-108313745D01*
X136388549Y-108352811D01*
X136322345Y-108419015D01*
X134081181Y-108419235D01*
X134003504Y-108419250D01*
X133715065Y-108419439D01*
X133437677Y-108419831D01*
X133172945Y-108420414D01*
X132922475Y-108421180D01*
X132687870Y-108422118D01*
X132470737Y-108423219D01*
X132272679Y-108424472D01*
X132095302Y-108425868D01*
X131940211Y-108427397D01*
X131809011Y-108429050D01*
X131703306Y-108430815D01*
X131624701Y-108432683D01*
X131574801Y-108434645D01*
X131516151Y-108438259D01*
X131297758Y-108457015D01*
X131108035Y-108482617D01*
X130946248Y-108515273D01*
X130811664Y-108555190D01*
X130703548Y-108602576D01*
X130621168Y-108657639D01*
X130563789Y-108720585D01*
X130542107Y-108757369D01*
X130519740Y-108826379D01*
X130525072Y-108887209D01*
X130557616Y-108937529D01*
X130616885Y-108975007D01*
X130632358Y-108981086D01*
X130707717Y-109004653D01*
X130807338Y-109029028D01*
X130926494Y-109053420D01*
X131060458Y-109077038D01*
X131204504Y-109099091D01*
X131353905Y-109118787D01*
X131503934Y-109135334D01*
X131649864Y-109147942D01*
X131733140Y-109154652D01*
X131821235Y-109164676D01*
X131886976Y-109177563D01*
X131934912Y-109195120D01*
X131969592Y-109219154D01*
X131995567Y-109251472D01*
X132017385Y-109293880D01*
X132020627Y-109301514D01*
X132038622Y-109381373D01*
X132027686Y-109457736D01*
X131988341Y-109526409D01*
X131987192Y-109527770D01*
X131952951Y-109562597D01*
X131914836Y-109587204D01*
X131866241Y-109603885D01*
X131800563Y-109614933D01*
X131711197Y-109622641D01*
X131634445Y-109628604D01*
X131498204Y-109642551D01*
X131351205Y-109660989D01*
X131200281Y-109682842D01*
X131052266Y-109707034D01*
X130913995Y-109732488D01*
X130792302Y-109758127D01*
X130694021Y-109782876D01*
X130668586Y-109791240D01*
X130603653Y-109823622D01*
X130553103Y-109864892D01*
X130524830Y-109909158D01*
X130518965Y-109953948D01*
X130530188Y-110020169D01*
X130559213Y-110088985D01*
X130603011Y-110151031D01*
X130640803Y-110187561D01*
X130712658Y-110237610D01*
X130803413Y-110281157D01*
X130915323Y-110318918D01*
X131050641Y-110351610D01*
X131211621Y-110379949D01*
X131400517Y-110404653D01*
X131435843Y-110407251D01*
X131499711Y-110410189D01*
X131588551Y-110413305D01*
X131699643Y-110416535D01*
X131830266Y-110419814D01*
X131977699Y-110423080D01*
X132139223Y-110426268D01*
X132312115Y-110429315D01*
X132493657Y-110432156D01*
X132681126Y-110434727D01*
X132815804Y-110436510D01*
X133013321Y-110439348D01*
X133209242Y-110442413D01*
X133399978Y-110445636D01*
X133581941Y-110448948D01*
X133751540Y-110452280D01*
X133905188Y-110455563D01*
X134039294Y-110458730D01*
X134150270Y-110461711D01*
X134234527Y-110464438D01*
X134235199Y-110464463D01*
X134334054Y-110467697D01*
X134458190Y-110471094D01*
X134602618Y-110474551D01*
X134762348Y-110477969D01*
X134932392Y-110481245D01*
X135107760Y-110484278D01*
X135283464Y-110486967D01*
X135454515Y-110489211D01*
X135528977Y-110490099D01*
X135706374Y-110492323D01*
X135856798Y-110494585D01*
X135982673Y-110497173D01*
X136086419Y-110500373D01*
X136170458Y-110504473D01*
X136237214Y-110509760D01*
X136289107Y-110516521D01*
X136328559Y-110525043D01*
X136357993Y-110535613D01*
X136379831Y-110548517D01*
X136396493Y-110564044D01*
X136410403Y-110582479D01*
X136423982Y-110604111D01*
X136439184Y-110635753D01*
X136454258Y-110709493D01*
X136448839Y-110786412D01*
X136422980Y-110853780D01*
X136420477Y-110857829D01*
X136404418Y-110882798D01*
X136388129Y-110903202D01*
X136368603Y-110919479D01*
X136342832Y-110932061D01*
X136307807Y-110941384D01*
X136260520Y-110947883D01*
X136197964Y-110951992D01*
X136117130Y-110954147D01*
X136015011Y-110954781D01*
X135888599Y-110954329D01*
X135734885Y-110953227D01*
X135639380Y-110952297D01*
X135487316Y-110950248D01*
X135315634Y-110947412D01*
X135130493Y-110943913D01*
X134938050Y-110939876D01*
X134744465Y-110935426D01*
X134555896Y-110930687D01*
X134378500Y-110925784D01*
X134232209Y-110921768D01*
X134047845Y-110917197D01*
X133843748Y-110912554D01*
X133625446Y-110907947D01*
X133398470Y-110903485D01*
X133168349Y-110899276D01*
X132940614Y-110895428D01*
X132720794Y-110892051D01*
X132514419Y-110889252D01*
X132502172Y-110889099D01*
X132275708Y-110886131D01*
X132076854Y-110883176D01*
X131903037Y-110880080D01*
X131751687Y-110876685D01*
X131620234Y-110872838D01*
X131506106Y-110868382D01*
X131406732Y-110863162D01*
X131319542Y-110857024D01*
X131241966Y-110849811D01*
X131171431Y-110841368D01*
X131105367Y-110831540D01*
X131041204Y-110820171D01*
X130976371Y-110807107D01*
X130908296Y-110792191D01*
X130761297Y-110753487D01*
X130583489Y-110687713D01*
X130431752Y-110606819D01*
X130305877Y-110510637D01*
X130205653Y-110398999D01*
X130130870Y-110271735D01*
X130081318Y-110128676D01*
X130062555Y-110019493D01*
X130063087Y-109881783D01*
X130091614Y-109753006D01*
X130147356Y-109635258D01*
X130229531Y-109530640D01*
X130337357Y-109441251D01*
X130411260Y-109391481D01*
X130361183Y-109365586D01*
X130327323Y-109343893D01*
X130280181Y-109307359D01*
X130232544Y-109265389D01*
X130211115Y-109243940D01*
X130137731Y-109145570D01*
X130088850Y-109034746D01*
X130064206Y-108915437D01*
X130063532Y-108791611D01*
X130086563Y-108667236D01*
X130133033Y-108546278D01*
X130202675Y-108432707D01*
X130295224Y-108330490D01*
X130346809Y-108286325D01*
X130451991Y-108213402D01*
X130571136Y-108152405D01*
X130708205Y-108101732D01*
X130867156Y-108059787D01*
X131051949Y-108024971D01*
X131074076Y-108021486D01*
X131124535Y-108013979D01*
X131175668Y-108007156D01*
X131229034Y-108000982D01*
X131286194Y-107995427D01*
X131348707Y-107990458D01*
X131418133Y-107986043D01*
X131496032Y-107982150D01*
X131583964Y-107978747D01*
X131683488Y-107975801D01*
X131796165Y-107973280D01*
X131923553Y-107971152D01*
X132067213Y-107969385D01*
X132228705Y-107967947D01*
X132409589Y-107966806D01*
X132611424Y-107965929D01*
X132835770Y-107965284D01*
X133084187Y-107964839D01*
X133358235Y-107964563D01*
X133659473Y-107964422D01*
X133989461Y-107964384D01*
X134279040Y-107964400D01*
G37*
G36*
X137301219Y-107728345D02*
G01*
X137385638Y-107752019D01*
X137454907Y-107798375D01*
X137515522Y-107871187D01*
X137535706Y-107905592D01*
X137566860Y-107996952D01*
X137571502Y-108092070D01*
X137549855Y-108184416D01*
X137502138Y-108267463D01*
X137487901Y-108285599D01*
X137452100Y-108337156D01*
X137432755Y-108382318D01*
X137426159Y-108432832D01*
X137428604Y-108500445D01*
X137428831Y-108503568D01*
X137432116Y-108537684D01*
X137437691Y-108570007D01*
X137447206Y-108604648D01*
X137462309Y-108645714D01*
X137484649Y-108697314D01*
X137515876Y-108763558D01*
X137557638Y-108848554D01*
X137611583Y-108956411D01*
X137618357Y-108969907D01*
X137680863Y-109095694D01*
X137730994Y-109199779D01*
X137770528Y-109286731D01*
X137801241Y-109361116D01*
X137824910Y-109427504D01*
X137843312Y-109490463D01*
X137858225Y-109554560D01*
X137871424Y-109624364D01*
X137875043Y-109645985D01*
X137888089Y-109751397D01*
X137893313Y-109860252D01*
X137890364Y-109976749D01*
X137878893Y-110105088D01*
X137858549Y-110249468D01*
X137828983Y-110414089D01*
X137789845Y-110603151D01*
X137768416Y-110703538D01*
X137740163Y-110847127D01*
X137720194Y-110972270D01*
X137709008Y-111084071D01*
X137707102Y-111187633D01*
X137714975Y-111288062D01*
X137733122Y-111390460D01*
X137762044Y-111499934D01*
X137802236Y-111621586D01*
X137854196Y-111760522D01*
X137918424Y-111921845D01*
X137931048Y-111953082D01*
X137992229Y-112106359D01*
X138042649Y-112236628D01*
X138083670Y-112347825D01*
X138116653Y-112443882D01*
X138142959Y-112528733D01*
X138163949Y-112606312D01*
X138180986Y-112680553D01*
X138181952Y-112685207D01*
X138203744Y-112837052D01*
X138211673Y-113013817D01*
X138211322Y-113076293D01*
X138205911Y-113188263D01*
X138192864Y-113291699D01*
X138170533Y-113392143D01*
X138137267Y-113495138D01*
X138091416Y-113606228D01*
X138031330Y-113730955D01*
X137955360Y-113874862D01*
X137895183Y-113986525D01*
X137844846Y-114083957D01*
X137806839Y-114165223D01*
X137779762Y-114235535D01*
X137762218Y-114300108D01*
X137752807Y-114364155D01*
X137750130Y-114432891D01*
X137752788Y-114511528D01*
X137759383Y-114605282D01*
X137763904Y-114674097D01*
X137765582Y-114846052D01*
X137750943Y-114997214D01*
X137719155Y-115131567D01*
X137669389Y-115253096D01*
X137600813Y-115365784D01*
X137551222Y-115430731D01*
X137460958Y-115527861D01*
X137357126Y-115613808D01*
X137234166Y-115692939D01*
X137086518Y-115769621D01*
X137003386Y-115806911D01*
X136815754Y-115875141D01*
X136617293Y-115925353D01*
X136402734Y-115958732D01*
X136166806Y-115976465D01*
X136099829Y-115978583D01*
X136002942Y-115979123D01*
X135901233Y-115976451D01*
X135790526Y-115970264D01*
X135666641Y-115960256D01*
X135525402Y-115946125D01*
X135362629Y-115927567D01*
X135174145Y-115904277D01*
X135093015Y-115894077D01*
X134946121Y-115876417D01*
X134823831Y-115863169D01*
X134722550Y-115854153D01*
X134638677Y-115849194D01*
X134568616Y-115848113D01*
X134508768Y-115850732D01*
X134455534Y-115856876D01*
X134405318Y-115866365D01*
X134357944Y-115878215D01*
X134293259Y-115901990D01*
X134251825Y-115930372D01*
X134230984Y-115957807D01*
X134203965Y-116025104D01*
X134188194Y-116115397D01*
X134184480Y-116225142D01*
X134184051Y-116260181D01*
X134166363Y-116360707D01*
X134123648Y-116444377D01*
X134055672Y-116511709D01*
X133975791Y-116557555D01*
X133879631Y-116582482D01*
X133780995Y-116577556D01*
X133682194Y-116542588D01*
X133650678Y-116524326D01*
X133584216Y-116464574D01*
X133537477Y-116384800D01*
X133509711Y-116283422D01*
X133500168Y-116158859D01*
X133502271Y-116076923D01*
X133525062Y-115902534D01*
X133572118Y-115742989D01*
X133642535Y-115599921D01*
X133735404Y-115474963D01*
X133849820Y-115369746D01*
X133984877Y-115285903D01*
X134024832Y-115266542D01*
X134105589Y-115232444D01*
X134185533Y-115207145D01*
X134270855Y-115189532D01*
X134367744Y-115178496D01*
X134482390Y-115172925D01*
X134620983Y-115171707D01*
X134692634Y-115172354D01*
X134797328Y-115175159D01*
X134897624Y-115180715D01*
X135002079Y-115189679D01*
X135119251Y-115202705D01*
X135257696Y-115220449D01*
X135399314Y-115238956D01*
X135570247Y-115259685D01*
X135717895Y-115275289D01*
X135846022Y-115286017D01*
X135958393Y-115292118D01*
X136058773Y-115293839D01*
X136150925Y-115291428D01*
X136238615Y-115285134D01*
X136358292Y-115270686D01*
X136533838Y-115236860D01*
X136692496Y-115190366D01*
X136830235Y-115132465D01*
X136943024Y-115064422D01*
X136948208Y-115060617D01*
X136984493Y-115033441D01*
X137012636Y-115008900D01*
X137033675Y-114982877D01*
X137048647Y-114951254D01*
X137058588Y-114909912D01*
X137064536Y-114854733D01*
X137067527Y-114781599D01*
X137068599Y-114686391D01*
X137068789Y-114564992D01*
X137069277Y-114455999D01*
X137071806Y-114340311D01*
X137077822Y-114241299D01*
X137088779Y-114153596D01*
X137106130Y-114071831D01*
X137131328Y-113990637D01*
X137165827Y-113904643D01*
X137211078Y-113808482D01*
X137268536Y-113696784D01*
X137339653Y-113564182D01*
X137350828Y-113543483D01*
X137411179Y-113428484D01*
X137457093Y-113333170D01*
X137490171Y-113252484D01*
X137512014Y-113181367D01*
X137524221Y-113114762D01*
X137528394Y-113047610D01*
X137526133Y-112974855D01*
X137518916Y-112900758D01*
X137499508Y-112792100D01*
X137467975Y-112673862D01*
X137422848Y-112540768D01*
X137362660Y-112387544D01*
X137301517Y-112237761D01*
X137228090Y-112050869D01*
X137167162Y-111885352D01*
X137117906Y-111737981D01*
X137079496Y-111605532D01*
X137051107Y-111484778D01*
X137031912Y-111372494D01*
X137021085Y-111265453D01*
X137017800Y-111160429D01*
X137021231Y-111054197D01*
X137021923Y-111042856D01*
X137026090Y-110981452D01*
X137030986Y-110926040D01*
X137037435Y-110871536D01*
X137046266Y-110812853D01*
X137058304Y-110744908D01*
X137074376Y-110662615D01*
X137095308Y-110560890D01*
X137121927Y-110434647D01*
X137143785Y-110329357D01*
X137170196Y-110192157D01*
X137189087Y-110077622D01*
X137200906Y-109981846D01*
X137206101Y-109900922D01*
X137205120Y-109830941D01*
X137198412Y-109767998D01*
X137194428Y-109743696D01*
X137184123Y-109692830D01*
X137170311Y-109642667D01*
X137151133Y-109588666D01*
X137124730Y-109526290D01*
X137089242Y-109451000D01*
X137042811Y-109358259D01*
X136983579Y-109243528D01*
X136935344Y-109149126D01*
X136872048Y-109016925D01*
X136822983Y-108901200D01*
X136786223Y-108796829D01*
X136759839Y-108698694D01*
X136741903Y-108601673D01*
X136731999Y-108437193D01*
X136750147Y-108274476D01*
X136795496Y-108119062D01*
X136866935Y-107974745D01*
X136963353Y-107845317D01*
X137007685Y-107801198D01*
X137081402Y-107751905D01*
X137164053Y-107727329D01*
X137263097Y-107724464D01*
X137301219Y-107728345D01*
G37*
G36*
X132472681Y-111686643D02*
G01*
X132685615Y-111687646D01*
X132904831Y-111689146D01*
X133128102Y-111691137D01*
X133353205Y-111693614D01*
X133577912Y-111696570D01*
X133800000Y-111700000D01*
X134017242Y-111703896D01*
X134227412Y-111708255D01*
X134428287Y-111713068D01*
X134564628Y-111716463D01*
X134755946Y-111720867D01*
X134949302Y-111724938D01*
X135140077Y-111728598D01*
X135323652Y-111731769D01*
X135495407Y-111734372D01*
X135650723Y-111736329D01*
X135784980Y-111737560D01*
X135893559Y-111737988D01*
X136019383Y-111738332D01*
X136153523Y-111739667D01*
X136263728Y-111741964D01*
X136348408Y-111745176D01*
X136405970Y-111749254D01*
X136434823Y-111754153D01*
X136482902Y-111780117D01*
X136531003Y-111821862D01*
X136561536Y-111866807D01*
X136572439Y-111912692D01*
X136574539Y-111976781D01*
X136566626Y-112040329D01*
X136549473Y-112089054D01*
X136545847Y-112094790D01*
X136511888Y-112133756D01*
X136469909Y-112167167D01*
X136461257Y-112172448D01*
X136447048Y-112179871D01*
X136430261Y-112185805D01*
X136407814Y-112190391D01*
X136376626Y-112193775D01*
X136333617Y-112196101D01*
X136275704Y-112197511D01*
X136199806Y-112198150D01*
X136102842Y-112198162D01*
X135981732Y-112197691D01*
X135833393Y-112196880D01*
X135759255Y-112196339D01*
X135617100Y-112194862D01*
X135452844Y-112192720D01*
X135271564Y-112190001D01*
X135078339Y-112186789D01*
X134878248Y-112183171D01*
X134676371Y-112179232D01*
X134477785Y-112175059D01*
X134287570Y-112170737D01*
X134183552Y-112168299D01*
X133984453Y-112163759D01*
X133777930Y-112159196D01*
X133569373Y-112154723D01*
X133364171Y-112150451D01*
X133167713Y-112146490D01*
X132985388Y-112142953D01*
X132822585Y-112139950D01*
X132684694Y-112137594D01*
X132044170Y-112127254D01*
X132084046Y-112216780D01*
X132113558Y-112285847D01*
X132163574Y-112413230D01*
X132215532Y-112556314D01*
X132267075Y-112707859D01*
X132315842Y-112860623D01*
X132359476Y-113007367D01*
X132395616Y-113140851D01*
X132421905Y-113253832D01*
X132422694Y-113257683D01*
X132439219Y-113341947D01*
X132452928Y-113421168D01*
X132464068Y-113499272D01*
X132472890Y-113580188D01*
X132479641Y-113667843D01*
X132484572Y-113766165D01*
X132487931Y-113879081D01*
X132489966Y-114010519D01*
X132490928Y-114164406D01*
X132491065Y-114344671D01*
X132490875Y-114435315D01*
X132489633Y-114619509D01*
X132487035Y-114779282D01*
X132482799Y-114918702D01*
X132476643Y-115041836D01*
X132468286Y-115152754D01*
X132457445Y-115255523D01*
X132443839Y-115354211D01*
X132427186Y-115452887D01*
X132407205Y-115555619D01*
X132393556Y-115619805D01*
X132320855Y-115901770D01*
X132231797Y-116163735D01*
X132127095Y-116404203D01*
X132007464Y-116621677D01*
X131873618Y-116814663D01*
X131726272Y-116981664D01*
X131689418Y-117017262D01*
X131546205Y-117134066D01*
X131398080Y-117221196D01*
X131244305Y-117278948D01*
X131084146Y-117307620D01*
X130916867Y-117307506D01*
X130875151Y-117303166D01*
X130699547Y-117266527D01*
X130530292Y-117201813D01*
X130369572Y-117110658D01*
X130219572Y-116994694D01*
X130082476Y-116855555D01*
X129960468Y-116694873D01*
X129855733Y-116514281D01*
X129834775Y-116471320D01*
X129781633Y-116348554D01*
X129736139Y-116219471D01*
X129697636Y-116080667D01*
X129665468Y-115928734D01*
X129638976Y-115760268D01*
X129617503Y-115571862D01*
X129600393Y-115360112D01*
X129586988Y-115121610D01*
X129579561Y-114904577D01*
X129580046Y-114723942D01*
X130037392Y-114723942D01*
X130044768Y-115079782D01*
X130048963Y-115171096D01*
X130061800Y-115382524D01*
X130078401Y-115568872D01*
X130099484Y-115733797D01*
X130125770Y-115880956D01*
X130157976Y-116014006D01*
X130196820Y-116136605D01*
X130243023Y-116252410D01*
X130297301Y-116365080D01*
X130304054Y-116377590D01*
X130361535Y-116464521D01*
X130436577Y-116554564D01*
X130521644Y-116640047D01*
X130609202Y-116713299D01*
X130691715Y-116766647D01*
X130762240Y-116799969D01*
X130889646Y-116839356D01*
X131012388Y-116849244D01*
X131130787Y-116829520D01*
X131245160Y-116780069D01*
X131355827Y-116700776D01*
X131463107Y-116591527D01*
X131567318Y-116452207D01*
X131569832Y-116448423D01*
X131696620Y-116230838D01*
X131803631Y-115990582D01*
X131890899Y-115727548D01*
X131958460Y-115441635D01*
X132006347Y-115132738D01*
X132007674Y-115120762D01*
X132013264Y-115052940D01*
X132018629Y-114961903D01*
X132023657Y-114852515D01*
X132028239Y-114729637D01*
X132032264Y-114598134D01*
X132035622Y-114462867D01*
X132038203Y-114328700D01*
X132039895Y-114200495D01*
X132040590Y-114083115D01*
X132040176Y-113981422D01*
X132038543Y-113900280D01*
X132035580Y-113844552D01*
X132029307Y-113775854D01*
X132013884Y-113628284D01*
X131996616Y-113498680D01*
X131975883Y-113379376D01*
X131950066Y-113262710D01*
X131917547Y-113141016D01*
X131876706Y-113006631D01*
X131825927Y-112851890D01*
X131797266Y-112767298D01*
X131750942Y-112634511D01*
X131710325Y-112524373D01*
X131673710Y-112432706D01*
X131639391Y-112355330D01*
X131605664Y-112288068D01*
X131570823Y-112226741D01*
X131522932Y-112147177D01*
X131412169Y-112147177D01*
X131362422Y-112148592D01*
X131285146Y-112159682D01*
X131209481Y-112184530D01*
X131098593Y-112239168D01*
X130974426Y-112319413D01*
X130849551Y-112418194D01*
X130730273Y-112530955D01*
X130600508Y-112678338D01*
X130467202Y-112865192D01*
X130352394Y-113069779D01*
X130255821Y-113293068D01*
X130177225Y-113536028D01*
X130116345Y-113799626D01*
X130072919Y-114084832D01*
X130046688Y-114392615D01*
X130037392Y-114723942D01*
X129580046Y-114723942D01*
X129580551Y-114535663D01*
X129600005Y-114189814D01*
X129638155Y-113866230D01*
X129695232Y-113564113D01*
X129771470Y-113282663D01*
X129867100Y-113021080D01*
X129982355Y-112778566D01*
X130117467Y-112554321D01*
X130272667Y-112347546D01*
X130448189Y-112157442D01*
X130448827Y-112156818D01*
X130563799Y-112053359D01*
X130689300Y-111956385D01*
X130819583Y-111869448D01*
X130948901Y-111796097D01*
X131071508Y-111739881D01*
X131181658Y-111704351D01*
X131206133Y-111700979D01*
X131262390Y-111697238D01*
X131344958Y-111694047D01*
X131451610Y-111691402D01*
X131522932Y-111690233D01*
X131580122Y-111689296D01*
X131728267Y-111687723D01*
X131893821Y-111686677D01*
X132074559Y-111686152D01*
X132268254Y-111686143D01*
X132472681Y-111686643D01*
G37*
%TO.C,ART3*%
G36*
X143984785Y-103246453D02*
G01*
X144046322Y-103279605D01*
X144131653Y-103326800D01*
X144237260Y-103386068D01*
X144359625Y-103455441D01*
X144495229Y-103532949D01*
X144640553Y-103616623D01*
X145314258Y-104005900D01*
X145304730Y-108808610D01*
X144624868Y-109201567D01*
X143945006Y-109594523D01*
X143263819Y-109200787D01*
X142582631Y-108807051D01*
X142581104Y-108005100D01*
X143127051Y-108005100D01*
X143127742Y-108085686D01*
X143131451Y-108150771D01*
X143140332Y-108199457D01*
X143156535Y-108242935D01*
X143182208Y-108292395D01*
X143253666Y-108394744D01*
X143365120Y-108497662D01*
X143501093Y-108577916D01*
X143657373Y-108633626D01*
X143829746Y-108662909D01*
X144014001Y-108663884D01*
X144186672Y-108638851D01*
X144350712Y-108587532D01*
X144491968Y-108512593D01*
X144607653Y-108415922D01*
X144694979Y-108299405D01*
X144751161Y-108164929D01*
X144758131Y-108130915D01*
X144765939Y-108060796D01*
X144768614Y-107986327D01*
X144755093Y-107863951D01*
X144707723Y-107728567D01*
X144629071Y-107607913D01*
X144521996Y-107505300D01*
X144389355Y-107424037D01*
X144234007Y-107367432D01*
X144197568Y-107359320D01*
X144090875Y-107345266D01*
X143969002Y-107339230D01*
X143844922Y-107341180D01*
X143731605Y-107351084D01*
X143642025Y-107368908D01*
X143500662Y-107421061D01*
X143361464Y-107501356D01*
X143252471Y-107602362D01*
X143172536Y-107724950D01*
X143162921Y-107745199D01*
X143144478Y-107793465D01*
X143133574Y-107845342D01*
X143128376Y-107912122D01*
X143127051Y-108005100D01*
X142581104Y-108005100D01*
X142578060Y-106406741D01*
X142577332Y-106024293D01*
X142689622Y-106024293D01*
X142689711Y-106268797D01*
X142690292Y-106484972D01*
X142691353Y-106671501D01*
X142692885Y-106827066D01*
X142694874Y-106950353D01*
X142697311Y-107040045D01*
X142700183Y-107094825D01*
X142703479Y-107113378D01*
X142703812Y-107113339D01*
X142725539Y-107103104D01*
X142775778Y-107076200D01*
X142850827Y-107034705D01*
X142946982Y-106980698D01*
X143060541Y-106916259D01*
X143187802Y-106843466D01*
X143325061Y-106764398D01*
X143465049Y-106684164D01*
X143594795Y-106611114D01*
X143710503Y-106547291D01*
X143808512Y-106494661D01*
X143885159Y-106455192D01*
X143936782Y-106430849D01*
X143959719Y-106423599D01*
X143969002Y-106428042D01*
X143981077Y-106433822D01*
X144031451Y-106460926D01*
X144106703Y-106502673D01*
X144202973Y-106556886D01*
X144316398Y-106621392D01*
X144443118Y-106694014D01*
X144579271Y-106772578D01*
X144711707Y-106849003D01*
X144837331Y-106921005D01*
X144949230Y-106984641D01*
X145043660Y-107037803D01*
X145116877Y-107078384D01*
X145165139Y-107104278D01*
X145184703Y-107113378D01*
X145184940Y-107113251D01*
X145187733Y-107091886D01*
X145190343Y-107035493D01*
X145192741Y-106946399D01*
X145194904Y-106826931D01*
X145196805Y-106679416D01*
X145198419Y-106506180D01*
X145199718Y-106309552D01*
X145200679Y-106091857D01*
X145201274Y-105855423D01*
X145201478Y-105602576D01*
X145201478Y-104091775D01*
X145159239Y-104064562D01*
X145136830Y-104051030D01*
X145084814Y-104020417D01*
X145007901Y-103975512D01*
X144910078Y-103918635D01*
X144795331Y-103852102D01*
X144667646Y-103778231D01*
X144531010Y-103699339D01*
X143945020Y-103361329D01*
X142695270Y-104082925D01*
X142690465Y-105598151D01*
X142690037Y-105752774D01*
X142689622Y-106024293D01*
X142577332Y-106024293D01*
X142573488Y-104006430D01*
X143248280Y-103616888D01*
X143316918Y-103577330D01*
X143458294Y-103496276D01*
X143588312Y-103422296D01*
X143703457Y-103357358D01*
X143800211Y-103303428D01*
X143875057Y-103262471D01*
X143924479Y-103236455D01*
X143944960Y-103227347D01*
X143945020Y-103227368D01*
X143950561Y-103229312D01*
X143984785Y-103246453D01*
G37*
G36*
X144122749Y-107769493D02*
G01*
X144241407Y-107809208D01*
X144331915Y-107873320D01*
X144372662Y-107926774D01*
X144393054Y-107997950D01*
X144378515Y-108067829D01*
X144330197Y-108132040D01*
X144249256Y-108186215D01*
X144245631Y-108187990D01*
X144202600Y-108206728D01*
X144159253Y-108219031D01*
X144106288Y-108226204D01*
X144034403Y-108229551D01*
X143934294Y-108230377D01*
X143928386Y-108230375D01*
X143830155Y-108229462D01*
X143760124Y-108226034D01*
X143709416Y-108218863D01*
X143669158Y-108206724D01*
X143630472Y-108188389D01*
X143620491Y-108182933D01*
X143546812Y-108129901D01*
X143505818Y-108069021D01*
X143493126Y-107994096D01*
X143507595Y-107922783D01*
X143555756Y-107858012D01*
X143636264Y-107808066D01*
X143747638Y-107773839D01*
X143888397Y-107756219D01*
X143976444Y-107754308D01*
X144122749Y-107769493D01*
G37*
%TO.C,JP2*%
X147700000Y-113800000D02*
X147700000Y-113200000D01*
X145600000Y-114500000D02*
X147000000Y-114500000D01*
X147000000Y-112500000D02*
X145600000Y-112500000D01*
X144900000Y-113200000D02*
X144900000Y-113800000D01*
X145600000Y-112500000D02*
G75*
G03*
X144900000Y-113200000I-1J-699999D01*
G01*
X147000000Y-114500000D02*
G75*
G03*
X147700000Y-113800000I1J699999D01*
G01*
X147700000Y-113200000D02*
G75*
G03*
X147000000Y-112500000I-699999J1D01*
G01*
X144900000Y-113800000D02*
G75*
G03*
X145600000Y-114500000I699999J-1D01*
G01*
%TO.C,JP1*%
X144900000Y-116300000D02*
X144900000Y-116900000D01*
X147700000Y-116900000D02*
X147700000Y-116300000D01*
X145600000Y-117600000D02*
X147000000Y-117600000D01*
X147000000Y-115600000D02*
X145600000Y-115600000D01*
X147700000Y-116300000D02*
G75*
G03*
X147000000Y-115600000I-699999J1D01*
G01*
X144900000Y-116900000D02*
G75*
G03*
X145600000Y-117600000I699999J-1D01*
G01*
X147000000Y-117600000D02*
G75*
G03*
X147700000Y-116900000I1J699999D01*
G01*
X145600000Y-115600000D02*
G75*
G03*
X144900000Y-116300000I-1J-699999D01*
G01*
%TO.C,ART2*%
G36*
X147068155Y-103246453D02*
G01*
X147129692Y-103279605D01*
X147215023Y-103326800D01*
X147320630Y-103386068D01*
X147442995Y-103455441D01*
X147578599Y-103532949D01*
X147723923Y-103616623D01*
X148397628Y-104005900D01*
X148388100Y-108808610D01*
X147708238Y-109201567D01*
X147028376Y-109594523D01*
X146347189Y-109200787D01*
X145666001Y-108807051D01*
X145665803Y-108702857D01*
X146466970Y-108702857D01*
X146467141Y-108827307D01*
X146468441Y-108921764D01*
X146470976Y-108989488D01*
X146474852Y-109033742D01*
X146480176Y-109057786D01*
X146487053Y-109064882D01*
X146495117Y-109061803D01*
X146532858Y-109042723D01*
X146597643Y-109007880D01*
X146685991Y-108959212D01*
X146794421Y-108898655D01*
X146919453Y-108828149D01*
X147057604Y-108749629D01*
X147205395Y-108665035D01*
X147900000Y-108266085D01*
X147905328Y-108065193D01*
X147906077Y-108030792D01*
X147905569Y-107938472D01*
X147900399Y-107882888D01*
X147890584Y-107864302D01*
X147881350Y-107867920D01*
X147842711Y-107887862D01*
X147778195Y-107923261D01*
X147691777Y-107971875D01*
X147587428Y-108031460D01*
X147469123Y-108099774D01*
X147340836Y-108174575D01*
X146811160Y-108484848D01*
X146805986Y-108192624D01*
X146800813Y-107900400D01*
X146637029Y-107905817D01*
X146473244Y-107911234D01*
X146468280Y-108488507D01*
X146467821Y-108545153D01*
X146466970Y-108702857D01*
X145665803Y-108702857D01*
X145663509Y-107498226D01*
X146473244Y-107498226D01*
X147900000Y-107498226D01*
X147905327Y-107318952D01*
X147906244Y-107273370D01*
X147905691Y-107201806D01*
X147902657Y-107149881D01*
X147897505Y-107126527D01*
X147895878Y-107125777D01*
X147866930Y-107122467D01*
X147806321Y-107119501D01*
X147718890Y-107116995D01*
X147609476Y-107115062D01*
X147482915Y-107113818D01*
X147344046Y-107113378D01*
X146803736Y-107113378D01*
X146798061Y-107014819D01*
X146792387Y-106916260D01*
X146473244Y-106916260D01*
X146473244Y-107498226D01*
X145663509Y-107498226D01*
X145661430Y-106406741D01*
X145660702Y-106024293D01*
X145772992Y-106024293D01*
X145773081Y-106268797D01*
X145773662Y-106484972D01*
X145774723Y-106671501D01*
X145776255Y-106827066D01*
X145778244Y-106950353D01*
X145780681Y-107040045D01*
X145783553Y-107094825D01*
X145786849Y-107113378D01*
X145787182Y-107113339D01*
X145808909Y-107103104D01*
X145859148Y-107076200D01*
X145934197Y-107034705D01*
X146030352Y-106980698D01*
X146143911Y-106916259D01*
X146271172Y-106843466D01*
X146408431Y-106764398D01*
X146548419Y-106684164D01*
X146678165Y-106611114D01*
X146792387Y-106548111D01*
X146793873Y-106547291D01*
X146891882Y-106494661D01*
X146968529Y-106455192D01*
X147020152Y-106430849D01*
X147043089Y-106423599D01*
X147064447Y-106433822D01*
X147114821Y-106460926D01*
X147190073Y-106502673D01*
X147286343Y-106556886D01*
X147399768Y-106621392D01*
X147526488Y-106694014D01*
X147662641Y-106772578D01*
X147795077Y-106849003D01*
X147920701Y-106921005D01*
X148032600Y-106984641D01*
X148127030Y-107037803D01*
X148200247Y-107078384D01*
X148248509Y-107104278D01*
X148268073Y-107113378D01*
X148268310Y-107113251D01*
X148271103Y-107091886D01*
X148273713Y-107035493D01*
X148276111Y-106946399D01*
X148278274Y-106826931D01*
X148280175Y-106679416D01*
X148281789Y-106506180D01*
X148283088Y-106309552D01*
X148284049Y-106091857D01*
X148284644Y-105855423D01*
X148284848Y-105602576D01*
X148284848Y-104091775D01*
X148242609Y-104064562D01*
X148220200Y-104051030D01*
X148168184Y-104020417D01*
X148091271Y-103975512D01*
X147993448Y-103918635D01*
X147878701Y-103852102D01*
X147751016Y-103778231D01*
X147614380Y-103699339D01*
X147028390Y-103361329D01*
X145778640Y-104082925D01*
X145773835Y-105598151D01*
X145773407Y-105752774D01*
X145772992Y-106024293D01*
X145660702Y-106024293D01*
X145656858Y-104006430D01*
X146331650Y-103616888D01*
X146400288Y-103577330D01*
X146541664Y-103496276D01*
X146671682Y-103422296D01*
X146786827Y-103357358D01*
X146883581Y-103303428D01*
X146958427Y-103262471D01*
X147007849Y-103236455D01*
X147028330Y-103227347D01*
X147028390Y-103227368D01*
X147033931Y-103229312D01*
X147068155Y-103246453D01*
G37*
%TD*%
M02*
