M48
; DRILL file {KiCad (5.99.0-13244-g73f40b11ee)} date Thursday, December 16, 2021 at 06:40:15 PM
; FORMAT={-:-/ absolute / inch / decimal}
; #@! TF.CreationDate,2021-12-16T18:40:15-08:00
; #@! TF.GenerationSoftware,Kicad,Pcbnew,(5.99.0-13244-g73f40b11ee)
; #@! TF.FileFunction,MixedPlating,1,4
FMAT,2
INCH
; #@! TA.AperFunction,Plated,PTH,ViaDrill
T1C0.0098
; #@! TA.AperFunction,Plated,PTH,ViaDrill
T2C0.0106
; #@! TA.AperFunction,Plated,PTH,ComponentDrill
T3C0.0118
; #@! TA.AperFunction,Plated,PTH,ComponentDrill
T4C0.0315
%
G90
G05
T1
X5.0103Y-4.6992
X5.0689Y-3.8406
X5.0824Y-4.1431
X5.0833Y-4.2638
X5.0985Y-4.6685
X5.1378Y-4.4094
X5.1634Y-4.5965
X5.1654Y-3.9843
X5.1732Y-4.4094
X5.1922Y-4.1207
X5.1939Y-4.0896
X5.2018Y-4.2638
X5.2189Y-4.095
X5.2251Y-4.1207
X5.2268Y-4.4094
X5.2638Y-4.4961
X5.2677Y-4.6181
X5.3118Y-4.2945
X5.3169Y-4.1535
X5.3228Y-4.3937
X5.3346Y-4.2283
X5.3388Y-4.3734
X5.3504Y-3.9921
X5.3583Y-4.4961
X5.3591Y-4.3569
X5.3661Y-4.6102
X5.374Y-4.2283
X5.3797Y-4.3409
X5.3885Y-4.5647
X5.4016Y-4.1772
X5.4075Y-4.0512
X5.4075Y-4.0807
X5.4094Y-4.2717
X5.4094Y-4.5827
X5.4213Y-3.9941
X5.4293Y-4.1922
X5.4331Y-4.6024
X5.4533Y-4.6856
X5.4685Y-4.4902
X5.4773Y-4.5221
X5.4843Y-4.122
X5.4853Y-4.4342
X5.4967Y-4.6121
X5.5033Y-4.2401
X5.5108Y-4.2152
X5.5157Y-3.9665
X5.5288Y-4.1955
X5.5433Y-4.7008
X5.6063Y-4.6339
X5.6142Y-4.6811
X5.6227Y-4.6534
X5.6471Y-4.6457
X5.6496Y-4.1063
X5.6496Y-4.1299
X5.65Y-4.0831
X5.685Y-4.0551
X5.685Y-4.0827
X5.685Y-4.1063
X5.7087Y-4.0551
X5.7087Y-4.0827
X5.7087Y-4.1063
X5.7087Y-4.1339
X5.7311Y-4.6102
X5.7598Y-4.5315
X5.7717Y-4.3409
X5.7953Y-4.6024
X5.8031Y-4.063
X5.8033Y-4.3348
X5.8268Y-4.0394
X5.8268Y-4.063
X5.8322Y-4.3279
X5.8386Y-4.6417
X5.8447Y-4.4593
X5.8543Y-4.315
X5.8543Y-4.0394
X5.8602Y-4.1594
X5.8699Y-4.6183
X5.8703Y-4.4585
X5.874Y-4.2165
X5.935Y-3.8524
T2
X5.1535Y-4.5591
X5.2302Y-3.983
X5.4121Y-3.9175
T3
X5.563Y-4.4331
T4
X4.9803Y-3.937
X4.9803Y-4.0157
X4.9803Y-4.0945
X4.9803Y-4.1732
X4.9803Y-4.252
X4.9803Y-4.3307
X4.9803Y-4.4094
X4.9803Y-4.4882
X4.9803Y-4.5669
X4.9803Y-4.6457
X5.0226Y-3.937
X5.0226Y-4.0157
X5.0226Y-4.0945
X5.0226Y-4.1732
X5.0226Y-4.252
X5.0226Y-4.3307
X5.0226Y-4.4094
X5.0226Y-4.4882
X5.0226Y-4.5669
X5.0226Y-4.6457
X5.1181Y-3.7992
X5.1181Y-3.8415
X5.1181Y-4.7411
X5.1181Y-4.7835
X5.1969Y-3.7992
X5.1969Y-3.8415
X5.1969Y-4.7411
X5.1969Y-4.7835
X5.2756Y-3.7992
X5.2756Y-3.8415
X5.2756Y-4.7411
X5.2756Y-4.7835
X5.3543Y-3.7992
X5.3543Y-3.8415
X5.3543Y-4.7411
X5.3543Y-4.7835
X5.4331Y-3.7992
X5.4331Y-3.8415
X5.4331Y-4.7411
X5.4331Y-4.7835
X5.5118Y-3.7992
X5.5118Y-3.8415
X5.5118Y-4.7411
X5.5118Y-4.7835
X5.5906Y-3.7992
X5.5906Y-3.8415
X5.5906Y-4.7411
X5.5906Y-4.7835
X5.6693Y-3.7992
X5.6693Y-3.8415
X5.6693Y-4.7411
X5.6693Y-4.7835
X5.748Y-3.7992
X5.748Y-3.8415
X5.748Y-4.7411
X5.748Y-4.7835
X5.8268Y-3.7992
X5.8268Y-3.8415
X5.8268Y-4.7411
X5.8268Y-4.7835
X5.9222Y-3.937
X5.9222Y-4.0157
X5.9222Y-4.0945
X5.9222Y-4.1732
X5.9222Y-4.252
X5.9222Y-4.3307
X5.9222Y-4.4094
X5.9222Y-4.4882
X5.9222Y-4.5669
X5.9222Y-4.6457
X5.9646Y-3.937
X5.9646Y-4.0157
X5.9646Y-4.0945
X5.9646Y-4.1732
X5.9646Y-4.252
X5.9646Y-4.3307
X5.9646Y-4.4094
X5.9646Y-4.4882
X5.9646Y-4.5669
X5.9646Y-4.6457
T0
M30
