%TF.GenerationSoftware,KiCad,Pcbnew,(5.99.0-13244-g73f40b11ee)*%
%TF.CreationDate,2021-12-16T18:40:11-08:00*%
%TF.ProjectId,MiniMike_RP2040,4d696e69-4d69-46b6-955f-525032303430,rev?*%
%TF.SameCoordinates,Original*%
%TF.FileFunction,Soldermask,Top*%
%TF.FilePolarity,Negative*%
%FSLAX46Y46*%
G04 Gerber Fmt 4.6, Leading zero omitted, Abs format (unit mm)*
G04 Created by KiCad (PCBNEW (5.99.0-13244-g73f40b11ee)) date 2021-12-16 18:40:11*
%MOMM*%
%LPD*%
G01*
G04 APERTURE LIST*
G04 Aperture macros list*
%AMRoundRect*
0 Rectangle with rounded corners*
0 $1 Rounding radius*
0 $2 $3 $4 $5 $6 $7 $8 $9 X,Y pos of 4 corners*
0 Add a 4 corners polygon primitive as box body*
4,1,4,$2,$3,$4,$5,$6,$7,$8,$9,$2,$3,0*
0 Add four circle primitives for the rounded corners*
1,1,$1+$1,$2,$3*
1,1,$1+$1,$4,$5*
1,1,$1+$1,$6,$7*
1,1,$1+$1,$8,$9*
0 Add four rect primitives between the rounded corners*
20,1,$1+$1,$2,$3,$4,$5,0*
20,1,$1+$1,$4,$5,$6,$7,0*
20,1,$1+$1,$6,$7,$8,$9,0*
20,1,$1+$1,$8,$9,$2,$3,0*%
G04 Aperture macros list end*
%ADD10RoundRect,0.140000X0.140000X0.170000X-0.140000X0.170000X-0.140000X-0.170000X0.140000X-0.170000X0*%
%ADD11RoundRect,0.225000X-0.225000X-0.250000X0.225000X-0.250000X0.225000X0.250000X-0.225000X0.250000X0*%
%ADD12RoundRect,0.140000X-0.140000X-0.170000X0.140000X-0.170000X0.140000X0.170000X-0.140000X0.170000X0*%
%ADD13RoundRect,0.200000X0.275000X-0.200000X0.275000X0.200000X-0.275000X0.200000X-0.275000X-0.200000X0*%
%ADD14R,0.700000X0.700000*%
%ADD15RoundRect,0.125000X-0.125000X0.250000X-0.125000X-0.250000X0.125000X-0.250000X0.125000X0.250000X0*%
%ADD16R,4.300000X3.400000*%
%ADD17R,0.180000X0.444400*%
%ADD18R,1.200000X0.300000*%
%ADD19RoundRect,0.140000X-0.170000X0.140000X-0.170000X-0.140000X0.170000X-0.140000X0.170000X0.140000X0*%
%ADD20RoundRect,0.218750X-0.256250X0.218750X-0.256250X-0.218750X0.256250X-0.218750X0.256250X0.218750X0*%
%ADD21RoundRect,0.200000X-0.275000X0.200000X-0.275000X-0.200000X0.275000X-0.200000X0.275000X0.200000X0*%
%ADD22RoundRect,0.225000X0.250000X-0.225000X0.250000X0.225000X-0.250000X0.225000X-0.250000X-0.225000X0*%
%ADD23RoundRect,0.225000X0.225000X0.250000X-0.225000X0.250000X-0.225000X-0.250000X0.225000X-0.250000X0*%
%ADD24R,0.650000X1.050000*%
%ADD25RoundRect,0.140000X0.170000X-0.140000X0.170000X0.140000X-0.170000X0.140000X-0.170000X-0.140000X0*%
%ADD26RoundRect,0.225000X-0.250000X0.225000X-0.250000X-0.225000X0.250000X-0.225000X0.250000X0.225000X0*%
%ADD27R,1.002800X0.177800*%
%ADD28R,0.177800X1.002800*%
%ADD29C,0.600000*%
%ADD30R,3.200400X3.200400*%
%ADD31R,1.350000X1.350000*%
%ADD32R,1.075000X1.350000*%
%ADD33C,1.350000*%
%ADD34R,1.350000X1.075000*%
%ADD35RoundRect,0.200000X0.200000X0.275000X-0.200000X0.275000X-0.200000X-0.275000X0.200000X-0.275000X0*%
%ADD36RoundRect,0.135000X0.185000X-0.135000X0.185000X0.135000X-0.185000X0.135000X-0.185000X-0.135000X0*%
%ADD37R,1.400000X1.200000*%
%ADD38RoundRect,0.135000X-0.135000X-0.185000X0.135000X-0.185000X0.135000X0.185000X-0.135000X0.185000X0*%
G04 APERTURE END LIST*
D10*
%TO.C,C14*%
X147180000Y-118500000D03*
X146220000Y-118500000D03*
%TD*%
D11*
%TO.C,C1*%
X146725000Y-101200000D03*
X148275000Y-101200000D03*
%TD*%
D12*
%TO.C,C6*%
X139120000Y-118600000D03*
X140080000Y-118600000D03*
%TD*%
D13*
%TO.C,R4*%
X142000000Y-101525000D03*
X142000000Y-99875000D03*
%TD*%
D14*
%TO.C,D2*%
X148115000Y-117050000D03*
X148115000Y-115950000D03*
X146285000Y-115950000D03*
X146285000Y-117050000D03*
%TD*%
D13*
%TO.C,R3*%
X143500000Y-101525000D03*
X143500000Y-99875000D03*
%TD*%
D15*
%TO.C,U3*%
X134030000Y-105600000D03*
X132760000Y-105600000D03*
X131490000Y-105600000D03*
X130220000Y-105600000D03*
X130220000Y-111000000D03*
X131490000Y-111000000D03*
X132760000Y-111000000D03*
X134030000Y-111000000D03*
D16*
X132125000Y-108300000D03*
%TD*%
D17*
%TO.C,U1*%
X145900012Y-103584197D03*
X146300012Y-103584197D03*
X146706412Y-103584197D03*
X146700012Y-102415797D03*
X146300012Y-102415797D03*
X145900012Y-102415797D03*
D18*
X146300012Y-102999997D03*
%TD*%
D10*
%TO.C,C13*%
X141980000Y-118600000D03*
X141020000Y-118600000D03*
%TD*%
%TO.C,C5*%
X147980000Y-108500000D03*
X147020000Y-108500000D03*
%TD*%
D19*
%TO.C,C4*%
X136500000Y-108120000D03*
X136500000Y-109080000D03*
%TD*%
D20*
%TO.C,D1*%
X129700000Y-102612500D03*
X129700000Y-104187500D03*
%TD*%
D21*
%TO.C,R5*%
X134900000Y-102675000D03*
X134900000Y-104325000D03*
%TD*%
D22*
%TO.C,C2*%
X145000000Y-107475000D03*
X145000000Y-105925000D03*
%TD*%
D23*
%TO.C,C3*%
X148275000Y-104700000D03*
X146725000Y-104700000D03*
%TD*%
D24*
%TO.C,SW2*%
X131225000Y-99725000D03*
X131225000Y-103875000D03*
X133375000Y-99725000D03*
X133375000Y-103875000D03*
%TD*%
D25*
%TO.C,C15*%
X135500000Y-109080000D03*
X135500000Y-108120000D03*
%TD*%
D26*
%TO.C,C8*%
X143500000Y-105925000D03*
X143500000Y-107475000D03*
%TD*%
D11*
%TO.C,C12*%
X138625000Y-105600000D03*
X140175000Y-105600000D03*
%TD*%
D21*
%TO.C,R6*%
X134900000Y-99675000D03*
X134900000Y-101325000D03*
%TD*%
D10*
%TO.C,C10*%
X148530000Y-114100000D03*
X147570000Y-114100000D03*
%TD*%
D27*
%TO.C,U2*%
X137799997Y-109958403D03*
X137799997Y-110364803D03*
X137799997Y-110771203D03*
X137799997Y-111177603D03*
X137799997Y-111584003D03*
X137799997Y-111990403D03*
X137799997Y-112396803D03*
X137799997Y-112803203D03*
X137799997Y-113209603D03*
X137799997Y-113616003D03*
X137799997Y-114022403D03*
X137799997Y-114428803D03*
X137799997Y-114835203D03*
X137799997Y-115241603D03*
D28*
X138658397Y-116100003D03*
X139064797Y-116100003D03*
X139471197Y-116100003D03*
X139877597Y-116100003D03*
X140283997Y-116100003D03*
X140690397Y-116100003D03*
X141096797Y-116100003D03*
X141503197Y-116100003D03*
X141909597Y-116100003D03*
X142315997Y-116100003D03*
X142722397Y-116100003D03*
X143128797Y-116100003D03*
X143535197Y-116100003D03*
X143941597Y-116100003D03*
D27*
X144799997Y-115241603D03*
X144799997Y-114835203D03*
X144799997Y-114428803D03*
X144799997Y-114022403D03*
X144799997Y-113616003D03*
X144799997Y-113209603D03*
X144799997Y-112803203D03*
X144799997Y-112396803D03*
X144799997Y-111990403D03*
X144799997Y-111584003D03*
X144799997Y-111177603D03*
X144799997Y-110771203D03*
X144799997Y-110364803D03*
X144799998Y-109958403D03*
D28*
X143941597Y-109100002D03*
X143535197Y-109100003D03*
X143128797Y-109100003D03*
X142722397Y-109100003D03*
X142315997Y-109100003D03*
X141909597Y-109100003D03*
X141503197Y-109100003D03*
X141096797Y-109100003D03*
X140690397Y-109100003D03*
X140283997Y-109100003D03*
X139877597Y-109100003D03*
X139471197Y-109100003D03*
X139064797Y-109100003D03*
X138658397Y-109100003D03*
D29*
X141299997Y-112600003D03*
D30*
X141299997Y-112600003D03*
%TD*%
D31*
%TO.C,PADS1*%
X127575000Y-100000000D03*
D32*
X127075000Y-100000000D03*
D33*
X126500000Y-100000000D03*
D32*
X127075000Y-102000000D03*
D33*
X127575000Y-102000000D03*
X126500000Y-102000000D03*
X126500000Y-104000000D03*
D32*
X127075000Y-104000000D03*
D33*
X127575000Y-104000000D03*
X127575000Y-106000000D03*
D32*
X127075000Y-106000000D03*
D33*
X126500000Y-106000000D03*
X127575000Y-108000000D03*
X126500000Y-108000000D03*
D32*
X127075000Y-108000000D03*
X127075000Y-110000000D03*
D33*
X126500000Y-110000000D03*
X127575000Y-110000000D03*
X127575000Y-112000000D03*
X126500000Y-112000000D03*
D32*
X127075000Y-112000000D03*
X127075000Y-114000000D03*
D33*
X126500000Y-114000000D03*
X127575000Y-114000000D03*
X127575000Y-116000000D03*
X126500000Y-116000000D03*
D32*
X127075000Y-116000000D03*
D33*
X127575000Y-118000000D03*
X126500000Y-118000000D03*
D32*
X127075000Y-118000000D03*
D33*
X130000000Y-120425000D03*
D34*
X130000000Y-120825000D03*
D33*
X130000000Y-121500000D03*
D34*
X132000000Y-120825000D03*
D33*
X132000000Y-120425000D03*
X132000000Y-121500000D03*
D34*
X134000000Y-120825000D03*
D33*
X134000000Y-120425000D03*
X134000000Y-121500000D03*
D34*
X136000000Y-120825000D03*
D33*
X136000000Y-120425000D03*
X136000000Y-121500000D03*
X138000000Y-120425000D03*
D34*
X138000000Y-120825000D03*
D33*
X138000000Y-121500000D03*
X140000000Y-121500000D03*
D34*
X140000000Y-120825000D03*
D33*
X140000000Y-120425000D03*
X142000000Y-121500000D03*
X142000000Y-120425000D03*
D34*
X142000000Y-120825000D03*
D33*
X144000000Y-120425000D03*
X144000000Y-121500000D03*
D34*
X144000000Y-120825000D03*
X146000000Y-120825000D03*
D33*
X146000000Y-120425000D03*
X146000000Y-121500000D03*
X148000000Y-121500000D03*
D34*
X148000000Y-120825000D03*
D33*
X148000000Y-120425000D03*
X150425000Y-118000000D03*
D32*
X151000000Y-118000000D03*
D33*
X151500000Y-118000000D03*
X150425000Y-116000000D03*
X151500000Y-116000000D03*
D32*
X151000000Y-116000000D03*
D33*
X150425000Y-114000000D03*
D32*
X151000000Y-114000000D03*
D33*
X151500000Y-114000000D03*
X150425000Y-112000000D03*
D32*
X151000000Y-112000000D03*
D33*
X151500000Y-112000000D03*
X150425000Y-110000000D03*
D32*
X151000000Y-110000000D03*
D33*
X151500000Y-110000000D03*
X150425000Y-108000000D03*
X151500000Y-108000000D03*
D32*
X151000000Y-108000000D03*
D33*
X151500000Y-106000000D03*
D32*
X151000000Y-106000000D03*
D33*
X150425000Y-106000000D03*
X150425000Y-104000000D03*
X151500000Y-104000000D03*
D32*
X151000000Y-104000000D03*
D33*
X150425000Y-102000000D03*
X151500000Y-102000000D03*
D32*
X151000000Y-102000000D03*
D33*
X151500000Y-100000000D03*
X150425000Y-100000000D03*
D32*
X150962500Y-100000000D03*
D33*
X148000000Y-96500000D03*
X148000000Y-97575000D03*
D34*
X148000000Y-97075000D03*
D33*
X146000000Y-97575000D03*
D34*
X146000000Y-97075000D03*
D33*
X146000000Y-96500000D03*
X144000000Y-96500000D03*
D34*
X144000000Y-97075000D03*
D33*
X144000000Y-97575000D03*
X142000000Y-96500000D03*
X142000000Y-97575000D03*
D34*
X142000000Y-97075000D03*
D33*
X140000000Y-97575000D03*
X140000000Y-96500000D03*
D34*
X140000000Y-97075000D03*
D33*
X138000000Y-97575000D03*
X138000000Y-96500000D03*
D34*
X138000000Y-97075000D03*
D33*
X136000000Y-96500000D03*
X136000000Y-97575000D03*
D34*
X136000000Y-97075000D03*
X134000000Y-97075000D03*
D33*
X134000000Y-97575000D03*
X134000000Y-96500000D03*
D34*
X132000000Y-97075000D03*
D33*
X132000000Y-97575000D03*
X132000000Y-96500000D03*
X130000000Y-97575000D03*
D34*
X130000000Y-97075000D03*
D33*
X130000000Y-96500000D03*
%TD*%
D26*
%TO.C,C7*%
X140100000Y-102425000D03*
X140100000Y-103975000D03*
%TD*%
D25*
%TO.C,C17*%
X130200000Y-118580000D03*
X130200000Y-117620000D03*
%TD*%
D12*
%TO.C,C11*%
X134420000Y-114200000D03*
X135380000Y-114200000D03*
%TD*%
D35*
%TO.C,R1*%
X148325000Y-99700000D03*
X146675000Y-99700000D03*
%TD*%
D10*
%TO.C,C9*%
X147980000Y-107500000D03*
X147020000Y-107500000D03*
%TD*%
D36*
%TO.C,R8*%
X131200000Y-118610000D03*
X131200000Y-117590000D03*
%TD*%
D37*
%TO.C,Y1*%
X134900000Y-116450000D03*
X132700000Y-116450000D03*
X132700000Y-118150000D03*
X134900000Y-118150000D03*
%TD*%
D24*
%TO.C,SW1*%
X138575000Y-103975000D03*
X138575000Y-99825000D03*
X136425000Y-99825000D03*
X136425000Y-103975000D03*
%TD*%
D38*
%TO.C,R7*%
X136090000Y-105300000D03*
X137110000Y-105300000D03*
%TD*%
D21*
%TO.C,R2*%
X129700000Y-99575000D03*
X129700000Y-101225000D03*
%TD*%
D10*
%TO.C,C16*%
X137480000Y-118300000D03*
X136520000Y-118300000D03*
%TD*%
M02*
